<svg id="visual" viewBox="0 0 960 540" width="960" height="540" xmlns="http://www.w3.org/2000/svg" xmlns:xlink="http://www.w3.org/1999/xlink" version="1.1"><g stroke-width="1" stroke-linejoin="bevel"><path d="M502.3 303L562.3 320L542.3 201Z" fill="#297ea6" stroke="#297ea6"></path><path d="M562.3 320L615 304L542.3 201Z" fill="#0c2435" stroke="#0c2435"></path><path d="M615 304L614 205L542.3 201Z" fill="#277297" stroke="#277297"></path><path d="M542.3 201L438.7 272L502.3 303Z" fill="#0c2435" stroke="#0c2435"></path><path d="M517.3 103L438.7 169L542.3 201Z" fill="#19435d" stroke="#19435d"></path><path d="M542.3 201L438.7 169L438.7 272Z" fill="#1d4e6b" stroke="#1d4e6b"></path><path d="M562.3 320L637 380L615 304Z" fill="#00101c" stroke="#00101c"></path><path d="M615 304L709.7 295L614 205Z" fill="#1d4e6b" stroke="#1d4e6b"></path><path d="M541.3 427L637 380L562.3 320Z" fill="#081a28" stroke="#081a28"></path><path d="M541.3 427L562.3 320L502.3 303Z" fill="#246688" stroke="#246688"></path><path d="M322 237L416.7 338L438.7 272Z" fill="#00101c" stroke="#00101c"></path><path d="M438.7 272L416.7 338L502.3 303Z" fill="#297ea6" stroke="#297ea6"></path><path d="M601 68L517.3 103L542.3 201Z" fill="#1d4e6b" stroke="#1d4e6b"></path><path d="M420.7 410L541.3 427L502.3 303Z" fill="#0c2435" stroke="#0c2435"></path><path d="M637 380L709.7 295L615 304Z" fill="#1d4e6b" stroke="#1d4e6b"></path><path d="M614 205L601 68L542.3 201Z" fill="#1d4e6b" stroke="#1d4e6b"></path><path d="M416.7 338L420.7 410L502.3 303Z" fill="#1d4e6b" stroke="#1d4e6b"></path><path d="M748.7 215L601 68L614 205Z" fill="#112e42" stroke="#112e42"></path><path d="M541.3 427L647 440L637 380Z" fill="#246688" stroke="#246688"></path><path d="M637 380L766.7 362L709.7 295Z" fill="#00101c" stroke="#00101c"></path><path d="M766.7 362L748.7 215L709.7 295Z" fill="#00101c" stroke="#00101c"></path><path d="M709.7 295L748.7 215L614 205Z" fill="#081a28" stroke="#081a28"></path><path d="M335 166L322 237L438.7 169Z" fill="#205a7a" stroke="#205a7a"></path><path d="M438.7 169L322 237L438.7 272Z" fill="#246688" stroke="#246688"></path><path d="M416.7 338L284 339L420.7 410Z" fill="#15384f" stroke="#15384f"></path><path d="M344 103L335 166L438.7 169Z" fill="#1d4e6b" stroke="#1d4e6b"></path><path d="M394.7 61L438.7 169L517.3 103Z" fill="#246688" stroke="#246688"></path><path d="M647 440L766.7 362L637 380Z" fill="#0c2435" stroke="#0c2435"></path><path d="M450.7 0L394.7 61L517.3 103Z" fill="#277297" stroke="#277297"></path><path d="M394.7 61L344 103L438.7 169Z" fill="#277297" stroke="#277297"></path><path d="M193.3 262L284 339L322 237Z" fill="#081a28" stroke="#081a28"></path><path d="M601 68L520.3 0L517.3 103Z" fill="#277297" stroke="#277297"></path><path d="M645 540L707.7 472L647 440Z" fill="#246688" stroke="#246688"></path><path d="M647 440L707.7 472L766.7 362Z" fill="#1d4e6b" stroke="#1d4e6b"></path><path d="M645 540L647 440L541.3 427Z" fill="#0c2435" stroke="#0c2435"></path><path d="M193.3 262L322 237L180.3 213Z" fill="#112e42" stroke="#112e42"></path><path d="M322 237L284 339L416.7 338Z" fill="#081a28" stroke="#081a28"></path><path d="M520.3 0L450.7 0L517.3 103Z" fill="#081a28" stroke="#081a28"></path><path d="M394.7 61L307 0L344 103Z" fill="#246688" stroke="#246688"></path><path d="M413.7 540L511.3 540L420.7 410Z" fill="#246688" stroke="#246688"></path><path d="M420.7 410L511.3 540L541.3 427Z" fill="#246688" stroke="#246688"></path><path d="M601 68L663 0L520.3 0Z" fill="#0c2435" stroke="#0c2435"></path><path d="M783.7 52L663 0L601 68Z" fill="#1d4e6b" stroke="#1d4e6b"></path><path d="M511.3 540L645 540L541.3 427Z" fill="#297ea6" stroke="#297ea6"></path><path d="M891.3 259L830.3 167L748.7 215Z" fill="#205a7a" stroke="#205a7a"></path><path d="M748.7 215L783.7 52L601 68Z" fill="#246688" stroke="#246688"></path><path d="M291 452L413.7 540L420.7 410Z" fill="#19435d" stroke="#19435d"></path><path d="M830.3 167L829.3 124L748.7 215Z" fill="#112e42" stroke="#112e42"></path><path d="M829.3 124L783.7 52L748.7 215Z" fill="#00101c" stroke="#00101c"></path><path d="M284 339L291 452L420.7 410Z" fill="#246688" stroke="#246688"></path><path d="M875.3 487L870.3 352L766.7 362Z" fill="#246688" stroke="#246688"></path><path d="M766.7 362L891.3 259L748.7 215Z" fill="#081a28" stroke="#081a28"></path><path d="M645 540L724.7 540L707.7 472Z" fill="#0c2435" stroke="#0c2435"></path><path d="M875.3 487L766.7 362L707.7 472Z" fill="#112e42" stroke="#112e42"></path><path d="M830.3 167L960 167L829.3 124Z" fill="#15384f" stroke="#15384f"></path><path d="M814.3 0L763.7 0L783.7 52Z" fill="#081a28" stroke="#081a28"></path><path d="M783.7 52L763.7 0L663 0Z" fill="#19435d" stroke="#19435d"></path><path d="M870.3 352L891.3 259L766.7 362Z" fill="#0c2435" stroke="#0c2435"></path><path d="M180.3 213L322 237L335 166Z" fill="#1d4e6b" stroke="#1d4e6b"></path><path d="M284 339L220.3 399L291 452Z" fill="#246688" stroke="#246688"></path><path d="M193.3 262L220.3 399L284 339Z" fill="#205a7a" stroke="#205a7a"></path><path d="M450.7 0L307 0L394.7 61Z" fill="#00101c" stroke="#00101c"></path><path d="M220.3 83L180.3 213L335 166Z" fill="#00101c" stroke="#00101c"></path><path d="M220.3 83L335 166L344 103Z" fill="#246688" stroke="#246688"></path><path d="M193.3 262L144.7 280L220.3 399Z" fill="#081a28" stroke="#081a28"></path><path d="M291 452L301 540L413.7 540Z" fill="#297ea6" stroke="#297ea6"></path><path d="M238.3 540L301 540L291 452Z" fill="#0c2435" stroke="#0c2435"></path><path d="M307 0L220.3 83L344 103Z" fill="#00101c" stroke="#00101c"></path><path d="M960 74L814.3 0L829.3 124Z" fill="#277297" stroke="#277297"></path><path d="M829.3 124L814.3 0L783.7 52Z" fill="#297ea6" stroke="#297ea6"></path><path d="M724.7 540L875.3 487L707.7 472Z" fill="#081a28" stroke="#081a28"></path><path d="M870.3 352L960 260L891.3 259Z" fill="#081a28" stroke="#081a28"></path><path d="M180.3 213L144.7 280L193.3 262Z" fill="#112e42" stroke="#112e42"></path><path d="M220.3 399L175.3 424L291 452Z" fill="#112e42" stroke="#112e42"></path><path d="M144.7 203L144.7 280L180.3 213Z" fill="#081a28" stroke="#081a28"></path><path d="M125.7 377L175.3 424L220.3 399Z" fill="#0c2435" stroke="#0c2435"></path><path d="M220.3 83L144.7 203L180.3 213Z" fill="#112e42" stroke="#112e42"></path><path d="M960 396L960 260L870.3 352Z" fill="#0c2435" stroke="#0c2435"></path><path d="M891.3 259L960 167L830.3 167Z" fill="#19435d" stroke="#19435d"></path><path d="M175.3 424L238.3 540L291 452Z" fill="#081a28" stroke="#081a28"></path><path d="M724.7 540L858.3 540L875.3 487Z" fill="#081a28" stroke="#081a28"></path><path d="M875.3 487L960 396L870.3 352Z" fill="#205a7a" stroke="#205a7a"></path><path d="M307 0L217.3 0L220.3 83Z" fill="#15384f" stroke="#15384f"></path><path d="M220.3 83L109.7 70L144.7 203Z" fill="#277297" stroke="#277297"></path><path d="M960 260L960 167L891.3 259Z" fill="#0c2435" stroke="#0c2435"></path><path d="M960 468L960 396L875.3 487Z" fill="#297ea6" stroke="#297ea6"></path><path d="M144.7 280L125.7 377L220.3 399Z" fill="#081a28" stroke="#081a28"></path><path d="M175.3 424L83.7 540L238.3 540Z" fill="#112e42" stroke="#112e42"></path><path d="M0 332L125.7 377L144.7 280Z" fill="#00101c" stroke="#00101c"></path><path d="M960 167L960 74L829.3 124Z" fill="#277297" stroke="#277297"></path><path d="M960 540L960 468L875.3 487Z" fill="#246688" stroke="#246688"></path><path d="M0 332L106.7 428L125.7 377Z" fill="#277297" stroke="#277297"></path><path d="M125.7 377L106.7 428L175.3 424Z" fill="#1d4e6b" stroke="#1d4e6b"></path><path d="M133.7 0L109.7 70L220.3 83Z" fill="#297ea6" stroke="#297ea6"></path><path d="M144.7 203L0 272L144.7 280Z" fill="#205a7a" stroke="#205a7a"></path><path d="M217.3 0L133.7 0L220.3 83Z" fill="#112e42" stroke="#112e42"></path><path d="M960 74L960 0L814.3 0Z" fill="#205a7a" stroke="#205a7a"></path><path d="M858.3 540L960 540L875.3 487Z" fill="#112e42" stroke="#112e42"></path><path d="M0 440L83.7 540L106.7 428Z" fill="#246688" stroke="#246688"></path><path d="M106.7 428L83.7 540L175.3 424Z" fill="#112e42" stroke="#112e42"></path><path d="M0 165L0 272L144.7 203Z" fill="#0c2435" stroke="#0c2435"></path><path d="M0 165L144.7 203L109.7 70Z" fill="#297ea6" stroke="#297ea6"></path><path d="M0 272L0 332L144.7 280Z" fill="#205a7a" stroke="#205a7a"></path><path d="M0 117L0 165L109.7 70Z" fill="#246688" stroke="#246688"></path><path d="M0 0L0 117L109.7 70Z" fill="#277297" stroke="#277297"></path><path d="M0 332L0 440L106.7 428Z" fill="#246688" stroke="#246688"></path><path d="M133.7 0L0 0L109.7 70Z" fill="#15384f" stroke="#15384f"></path><path d="M0 440L0 540L83.7 540Z" fill="#297ea6" stroke="#297ea6"></path></g></svg>